#!OML:ASF H:\Pregnant\Project 1\Capture day 1\Session 1\femalepreg.ASF
:FULLY-SPECIFIED
:DEGREES
458
root 3.20214 15.8252 -28.9019 -307.394 81.0031 28.1224
lowerback -12.0331 -5.7546 -6.67858
upperback -4.31561 -6.70763 0.1434
thorax 2.94604 -3.25408 2.87757
lowerneck -9.65556 -17.8888 -12.3284
upperneck 18.9038 -24.5701 9.26426
head 10.2806 -11.4939 1.67474
rclavicle 4.80065e-014 1.59028e-014
rhumerus -39.2079 40.5106 -97.2123
rradius 88.5781
rwrist -9.41356
rhand -21.2879 -12.8308
rfingers 7.12502
rthumb 5.09632 -42.7495
lclavicle 4.80065e-014 1.59028e-014
lhumerus -64.4104 -2.66724 81.8491
lradius 20.4292
lwrist 45.6116
lhand -27.0764 5.08539
lfingers 7.12502
lthumb -0.49388 35.0646
rfemur -25.144 26.5421 22.5702
rtibia 37.6887
rfoot -18.4611 7.77989
rtoes 15.8157
lfemur -53.655 -13.2825 -4.2251
ltibia 27.1913
lfoot -13.8476 13.0099
ltoes -35.0682
459
root 3.34801 15.7816 -28.9142 -310.136 80.6495 25.6168
lowerback -11.9264 -5.94238 -7.0917
upperback -4.28538 -6.91201 0.0486978
thorax 2.97449 -3.35567 2.97739
lowerneck -9.82108 -17.8024 -12.2035
upperneck 19.1505 -24.5058 9.32337
head 10.3842 -11.4352 1.66871
rclavicle -1.27123e-013 1.59028e-015
rhumerus -39.6164 39.9402 -96.6901
rradius 88.2754
rwrist -10.3691
rhand -21.247 -13.2799
rfingers 7.12502
rthumb 5.1359 -43.1976
lclavicle -1.27123e-013 1.59028e-015
lhumerus -63.9631 -3.22558 82.2004
lradius 20.0378
lwrist 44.5195
lhand -26.987 5.65488
lfingers 7.12502
lthumb -0.407513 35.6342
rfemur -24.8038 26.0016 23.0303
rtibia 38.7964
rfoot -18.1649 8.67148
rtoes 15.9855
lfemur -53.066 -12.728 -4.81897
ltibia 27.5952
lfoot -13.2518 11.5053
ltoes -34.8676
460
root 3.49313 15.738 -28.9267 -312.922 80.319 23.0776
lowerback -11.7779 -6.12923 -7.46979
upperback -4.26809 -7.1267 0.000569022
thorax 2.97165 -3.46174 3.10887
lowerneck -9.97179 -17.7076 -12.0853
upperneck 19.373 -24.4236 9.36589
head 10.4732 -11.3717 1.66411
rclavicle -8.54774e-015 -1.98785e-014
rhumerus -40.0938 39.3894 -96.1136
rradius 87.9584
rwrist -11.3393
rhand -21.0053 -13.5027
rfingers 7.12502
rthumb 5.36921 -43.4146
lclavicle -8.54774e-015 -1.98785e-014
lhumerus -63.455 -3.72682 82.5016
lradius 19.6276
lwrist 43.1343
lhand -26.6279 6.03396
lfingers 7.12502
lthumb -0.0607337 36.0137
rfemur -24.5727 25.3062 23.5298
rtibia 40.0707
rfoot -17.6752 9.73949
rtoes 16.1817
lfemur -52.4932 -12.0732 -5.43609
ltibia 28.142
lfoot -12.2495 9.65947
ltoes -34.5281
461
root 3.63696 15.6963 -28.9397 -315.721 80.0097 20.5221
lowerback -11.5748 -6.3314 -7.82855
upperback -4.2795 -7.37501 0.0265531
thorax 2.92246 -3.58295 3.3078
lowerneck -10.094 -17.5957 -12.0171
upperneck 19.5671 -24.3031 9.39095
head 10.547 -11.2979 1.67066
rclavicle -3.27995e-015 7.15625e-015
rhumerus -40.6437 38.928 -95.479
rradius 87.6166
rwrist -12.2241
rhand -20.5474 -13.5643
rfingers 7.12502
rthumb 5.81132 -43.4646
lclavicle -3.27995e-015 7.15625e-015
lhumerus -62.9107 -4.14548 82.8126
lradius 19.227
lwrist 41.598
lhand -26.0305 6.13267
lfingers 7.12502
lthumb 0.516274 36.1118
rfemur -24.4756 24.52 24.0453
rtibia 41.511
rfoot -16.907 10.9141
rtoes 16.4344
lfemur -52.0003 -11.3519 -6.04348
ltibia 28.8532
lfoot -10.984 7.67697
ltoes -34.2393
462
root 3.77893 15.6596 -28.9526 -318.423 79.7009 18.0421
lowerback -11.3258 -6.54485 -8.18645
upperback -4.32648 -7.64871 0.115173
thorax 2.82525 -3.71442 3.57396
lowerneck -10.2013 -17.4726 -11.9989
upperneck 19.7476 -24.1522 9.39569
head 10.6135 -11.2167 1.68421
rclavicle 3.85642e-014 2.38542e-014
rhumerus -41.2586 38.5397 -94.7989
rradius 87.2382
rwrist -12.9195
rhand -20.0086 -13.629
rfingers 7.12502
rthumb 6.33151 -43.5143
lclavicle 3.85642e-014 2.38542e-014
lhumerus -62.3993 -4.64547 83.3378
lradius 18.9808
lwrist 40.2299
lhand -25.2971 5.97578
lfingers 7.12502
lthumb 1.22466 35.952
rfemur -24.558 23.6472 24.531
rtibia 43.1295
rfoot -15.7618 12.1953
rtoes 16.9732
lfemur -51.613 -10.5203 -6.69786
ltibia 29.7208
lfoot -9.70135 5.77714
ltoes -34.2462
463
root 3.9184 15.6289 -28.9651 -320.911 79.3831 15.7438
lowerback -11.0505 -6.75196 -8.54506
upperback -4.39222 -7.92074 0.234115
thorax 2.70179 -3.84343 3.87685
lowerneck -10.318 -17.362 -12.0125
upperneck 19.9126 -24.0111 9.40348
head 10.682 -11.1418 1.70016
rclavicle -1.42131e-014 4.21423e-014
rhumerus -41.8933 38.1619 -94.068
rradius 86.8151
rwrist -13.3622
rhand -19.4059 -13.7117
rfingers 7.12502
rthumb 6.9133 -43.5788
lclavicle -1.42131e-014 4.21423e-014
lhumerus -61.8044 -5.19171 83.9037
lradius 18.7541
lwrist 38.8751
lhand -24.3978 5.48922
lfingers 7.12502
lthumb 2.09314 35.4587
rfemur -24.8666 22.7 24.9561
rtibia 44.952
rfoot -14.1762 13.5145
rtoes 17.7172
lfemur -51.3264 -9.62863 -7.37859
ltibia 30.7102
lfoot -8.71969 4.10235
ltoes -34.4249
464
root 4.05366 15.6058 -28.9765 -322.963 79.044 13.849
lowerback -10.7586 -6.92261 -8.91156
upperback -4.45433 -8.1452 0.302493
thorax 2.56403 -3.94749 4.14225
lowerneck -10.4026 -17.2947 -11.9834
upperneck 20.0248 -23.9494 9.46275
head 10.7364 -11.0985 1.71689
rclavicle -7.85199e-015 1.19271e-014
rhumerus -42.5231 37.64 -93.3381
rradius 86.3426
rwrist -13.4996
rhand -18.7999 -13.837
rfingers 7.12502
rthumb 7.49831 -43.6841
lclavicle -7.85199e-015 1.19271e-014
lhumerus -61.0926 -5.97101 84.4914
lradius 18.5611
lwrist 37.6134
lhand -23.4783 4.81824
lfingers 7.12502
lthumb 2.98121 34.7772
rfemur -25.4316 21.6974 25.2708
rtibia 47.0001
rfoot -12.0881 14.778
rtoes 18.8389
lfemur -51.1105 -8.76847 -8.03545
ltibia 31.7531
lfoot -8.21913 2.80029
ltoes -34.2346
465
root 4.18094 15.5885 -28.9851 -324.201 78.6907 12.6828
lowerback -10.4614 -7.08892 -9.39034
upperback -4.53867 -8.35392 0.335366
thorax 2.4097 -4.0401 4.43684
lowerneck -10.3128 -17.2806 -11.9735
upperneck 20.0003 -23.9885 9.63454
head 10.7395 -11.1044 1.77144
rclavicle 3.97569e-015 -1.35174e-014
rhumerus -43.1629 37.0139 -92.6135
rradius 85.8394
rwrist -13.4
rhand -18.4947 -14.1393
rfingers 7.12502
rthumb 7.79288 -43.9757
lclavicle 3.97569e-015 -1.35174e-014
lhumerus -60.2436 -6.9114 85.0368
lradius 18.3737
lwrist 36.3601
lhand -22.5991 4.06013
lfingers 7.12502
lthumb 3.83028 34.0055
rfemur -26.3474 20.6433 25.4131
rtibia 49.2838
rfoot -9.57043 15.7549
rtoes 19.8826
lfemur -50.9975 -7.90673 -8.74106
ltibia 32.7684
lfoot -8.15655 1.78188
ltoes -33.6707
466
root 4.30078 15.5743 -28.9918 -324.483 78.3314 12.4374
lowerback -10.1244 -7.25246 -10.0201
upperback -4.62991 -8.54981 0.309861
thorax 2.2383 -4.12238 4.75968
lowerneck -9.96644 -17.32 -11.9995
upperneck 19.7687 -24.134 9.96011
head 10.6598 -11.1666 1.88686
rclavicle -3.26007e-014 7.15625e-015
rhumerus -43.8322 36.2694 -91.9249
rradius 85.3101
rwrist -13.1294
rhand -18.3683 -14.4994
rfingers 7.12502
rthumb 7.9149 -44.3312
lclavicle -3.26007e-014 7.15625e-015
lhumerus -59.2429 -7.98097 85.4546
lradius 18.1754
lwrist 35.0367
lhand -21.8317 3.37131
lfingers 7.12502
lthumb 4.57129 33.302
rfemur -27.545 19.5362 25.3556
rtibia 51.767
rfoot -6.7999 16.2965
rtoes 20.4672
lfemur -50.8974 -7.17602 -9.48941
ltibia 33.6714
lfoot -8.41886 0.999705
ltoes -32.8325
467
root 4.4136 15.5615 -28.9966 -323.797 77.9626 13.1468
lowerback -9.74948 -7.40557 -10.8077
upperback -4.71609 -8.72332 0.203535
thorax 2.05905 -4.18933 5.09121
lowerneck -9.36715 -17.417 -12.0544
upperneck 19.3392 -24.3896 10.4333
head 10.5021 -11.288 2.05856
rclavicle 7.35503e-014 3.33958e-014
rhumerus -44.5807 35.459 -91.3117
rradius 84.8183
rwrist -12.8262
rhand -18.6564 -15.047
rfingers 7.12502
rthumb 7.63677 -44.8891
lclavicle 7.35503e-014 3.33958e-014
lhumerus -58.0803 -9.18273 85.6936
lradius 17.9716
lwrist 33.6277
lhand -21.1267 2.72097
lfingers 7.12502
lthumb 5.25203 32.6359
rfemur -28.9634 18.3933 25.0864
rtibia 54.3799
rfoot -3.99419 16.3745
rtoes 20.1691
lfemur -50.7534 -6.62776 -10.2881
ltibia 34.3932
lfoot -8.85172 0.389554
ltoes -31.9287
